<svg width="278" height="39" viewBox="0 0 278 39" fill="none" xmlns="http://www.w3.org/2000/svg">
<g clip-path="url(#clip0_22_2)">
<mask id="mask0_22_2" style="mask-type:luminance" maskUnits="userSpaceOnUse" x="0" y="0" width="78" height="39">
<path d="M77.7967 0H0V38.31H77.7967V0Z" fill="white"/>
</mask>
<g mask="url(#mask0_22_2)">
<path d="M65.6812 11.63H65.6921L70.7436 16.31L65.6812 11.63Z" fill="url(#paint0_linear_22_2)"/>
<path d="M77.7963 19.16C77.7963 18.85 77.6881 18.54 77.4934 18.29C77.4393 18.22 77.3744 18.15 77.3095 18.08L62.0898 4.01C59.299 1.42 55.5779 0 51.6297 0C47.6706 0 43.9603 1.42 41.1587 4.01C40.8558 4.29 40.6719 4.68 40.6719 5.09C40.6719 5.49 40.845 5.88 41.1587 6.17L42.4027 7.32L55.221 19.17L45.2584 28.38L41.1587 32.17C40.8558 32.45 40.6719 32.84 40.6719 33.25C40.6719 33.32 40.6828 33.38 40.6936 33.45C40.7368 33.78 40.8991 34.09 41.1587 34.33C41.1695 34.34 41.1912 34.35 41.202 34.37C41.5698 34.71 41.9484 35.02 42.3486 35.32C42.3594 35.33 42.3702 35.34 42.381 35.35C42.6947 35.58 43.0301 35.81 43.3546 36.01C43.3654 36.02 43.387 36.03 43.3979 36.04C43.506 36.11 43.6142 36.17 43.7332 36.23C44.0036 36.39 44.274 36.54 44.5445 36.68C44.6851 36.75 44.8149 36.81 44.9555 36.88C45.226 37.01 45.5072 37.13 45.7884 37.24C45.9074 37.29 46.0372 37.34 46.1562 37.39C46.5565 37.54 46.9567 37.67 47.3569 37.78C47.4218 37.8 47.4975 37.81 47.5624 37.83C47.9086 37.92 48.2547 38 48.6117 38.07C48.7523 38.1 48.893 38.12 49.0336 38.14C49.3256 38.19 49.6285 38.23 49.9314 38.26C50.072 38.27 50.2018 38.29 50.3424 38.3C50.7535 38.33 51.1537 38.35 51.5648 38.35C51.5864 38.35 51.5972 38.35 51.6189 38.35C53.5876 38.35 55.5563 37.98 57.3952 37.26C59.1043 36.59 60.6944 35.63 62.0898 34.35L65.3458 31.34L68.0176 28.87L76.1629 21.34L77.3312 20.26C77.5583 20.05 77.7206 19.78 77.7855 19.48C77.7855 19.36 77.7963 19.26 77.7963 19.16ZM59.7642 32.16C59.7317 32.19 59.6993 32.21 59.6776 32.24C59.4613 32.44 59.2341 32.63 59.007 32.81C58.9096 32.89 58.8014 32.95 58.7041 33.03C58.5418 33.15 58.3688 33.27 58.1957 33.38C58.0767 33.46 57.9577 33.52 57.8387 33.59C57.6765 33.69 57.5142 33.78 57.3411 33.87C57.2113 33.94 57.0815 34 56.9517 34.06C56.7895 34.14 56.6164 34.22 56.4541 34.29C56.3243 34.35 56.1837 34.4 56.0539 34.45C55.8808 34.51 55.7186 34.58 55.5455 34.64C55.4049 34.69 55.2751 34.73 55.1344 34.77C54.9614 34.82 54.7883 34.87 54.6044 34.91C54.4638 34.94 54.3231 34.98 54.1825 35C53.9986 35.04 53.8256 35.07 53.6417 35.1C53.501 35.12 53.3604 35.14 53.2198 35.16C53.0359 35.18 52.852 35.2 52.6681 35.22C52.5275 35.23 52.3977 35.24 52.2571 35.25C52.0624 35.26 51.8785 35.26 51.6838 35.26C51.554 35.26 51.4242 35.26 51.2835 35.26C51.0888 35.25 50.8833 35.24 50.6886 35.22C50.5696 35.21 50.4398 35.2 50.3208 35.19C50.1045 35.17 49.8989 35.13 49.6826 35.1C49.5744 35.08 49.4663 35.07 49.3581 35.05C49.1093 35 48.8605 34.94 48.6117 34.88C48.5468 34.86 48.4711 34.85 48.4062 34.83C48.0925 34.74 47.7788 34.65 47.4651 34.54C47.4326 34.53 47.4002 34.51 47.3677 34.5C47.0973 34.4 46.8269 34.29 46.5565 34.17C46.4591 34.13 46.3617 34.07 46.2644 34.02C46.0697 33.93 45.8858 33.83 45.6911 33.73C45.3882 33.56 45.0961 33.38 44.8041 33.18C44.7824 33.17 44.7608 33.15 44.7392 33.14L49.1958 29.02L57.5575 21.29L64.5345 27.74L61.0514 30.96L59.7642 32.16ZM51.6297 3.04C54.7017 3.04 57.6007 4.15 59.775 6.16L73.8372 19.16L66.8602 25.61L44.7284 5.16C46.7079 3.79 49.0985 3.04 51.6297 3.04Z" fill="url(#paint1_linear_22_2)"/>
<path d="M37.0919 32.94C37.027 32.65 36.8756 32.38 36.6376 32.16L32.2891 28.14L22.5753 19.16L35.4044 7.31L36.6484 6.16C36.9513 5.87 37.1352 5.49 37.1352 5.08C37.1352 4.68 36.9621 4.29 36.6484 4C33.8468 1.42 30.1365 0 26.1774 0C22.2184 0 18.5081 1.42 15.7065 4.01L0.48677 18.08C0.421868 18.14 0.367782 18.2 0.313696 18.27C0.108171 18.53 0 18.84 0 19.16C0 19.56 0.173074 19.95 0.48677 20.24L1.65502 21.32L9.80031 28.85L12.4721 31.32L15.7281 34.33C17.1127 35.61 18.7136 36.58 20.4227 37.24C22.2616 37.96 24.2303 38.33 26.1991 38.33C26.2207 38.33 26.2315 38.33 26.2532 38.33C26.6642 38.33 27.0644 38.31 27.4755 38.28C27.6161 38.27 27.7459 38.25 27.8865 38.24C28.1894 38.21 28.4815 38.17 28.7844 38.12C28.925 38.1 29.0656 38.08 29.2062 38.05C29.5632 37.98 29.9093 37.9 30.2555 37.81C30.3204 37.79 30.3961 37.78 30.461 37.76C30.8721 37.65 31.2723 37.52 31.6617 37.37C31.7915 37.32 31.9105 37.27 32.0295 37.22C32.3107 37.11 32.592 36.99 32.8624 36.86C33.003 36.8 33.1437 36.73 33.2735 36.66C33.5547 36.52 33.8251 36.37 34.0847 36.21C34.1929 36.15 34.3119 36.09 34.4201 36.02C34.4309 36.01 34.4525 36 34.4633 35.99C34.7987 35.78 35.1232 35.56 35.4369 35.33C35.4477 35.32 35.4585 35.31 35.4693 35.3C35.8588 35.01 36.2482 34.69 36.616 34.36C36.6376 34.34 36.6484 34.33 36.67 34.32C36.8864 34.12 37.027 33.87 37.1027 33.6C37.1352 33.48 37.1568 33.37 37.1568 33.24C37.1244 33.14 37.1135 33.04 37.0919 32.94ZM31.2615 34.18C30.991 34.3 30.7206 34.41 30.4502 34.51C30.4177 34.52 30.3853 34.54 30.3528 34.55C30.0391 34.66 29.7254 34.76 29.4118 34.84C29.3468 34.86 29.2711 34.87 29.2062 34.89C28.9574 34.95 28.7086 35.01 28.4598 35.06C28.3517 35.08 28.2435 35.09 28.1353 35.11C27.919 35.14 27.7135 35.18 27.4971 35.2C27.3781 35.21 27.2483 35.22 27.1293 35.23C26.9346 35.25 26.7291 35.26 26.5344 35.26C26.4046 35.26 26.2748 35.26 26.1342 35.26C25.9395 35.26 25.7556 35.26 25.5609 35.25C25.4202 35.24 25.2904 35.23 25.1498 35.22C24.9659 35.2 24.782 35.19 24.5981 35.16C24.4575 35.14 24.3169 35.12 24.1763 35.1C23.9924 35.07 23.8193 35.04 23.6354 35C23.4948 34.97 23.3542 34.94 23.2135 34.91C23.0405 34.87 22.8566 34.82 22.6835 34.77C22.5429 34.73 22.4023 34.69 22.2724 34.64C22.0994 34.58 21.9263 34.52 21.764 34.45C21.6234 34.4 21.4936 34.35 21.3638 34.29C21.1907 34.22 21.0285 34.14 20.8662 34.06C20.7364 34 20.6066 33.94 20.4768 33.87C20.3146 33.78 20.1415 33.68 19.9792 33.59C19.8602 33.52 19.7412 33.45 19.6223 33.38C19.4492 33.27 19.2869 33.15 19.1139 33.03C19.0165 32.96 18.9083 32.89 18.811 32.81C18.5838 32.63 18.3567 32.44 18.1403 32.24C18.1079 32.21 18.0754 32.19 18.0538 32.16L16.7774 30.98L13.2942 27.76L20.2713 21.31L29.1846 29.55L33.0896 33.16C33.0679 33.18 33.0463 33.19 33.0247 33.2C32.7434 33.4 32.4405 33.58 32.1485 33.74C31.9646 33.84 31.7699 33.94 31.5752 34.03C31.4562 34.09 31.3588 34.14 31.2615 34.18ZM18.0321 6.16C20.2064 4.15 23.0946 3.04 26.1774 3.04C28.6978 3.04 31.0992 3.78 33.0788 5.16L10.9469 25.61L3.96988 19.16L18.0321 6.16Z" fill="url(#paint2_linear_22_2)"/>
</g>
<path d="M85.94 2.7H99.86V5.52L95.6 6.3L101.66 23.58L104.18 31.2L106.34 23.82L112.4 6.3L108.32 5.52V2.7H120.5V5.52L117.38 6.3L105.8 36.48H100.7L88.64 6.3L85.94 5.52V2.7Z" fill="#77BEFF"/>
<path d="M147.739 3.879H154.318L164.251 32.99L166.745 33.42V36H154.06V33.42L157.285 32.99L155.608 27.4H144.471L142.794 33.033L146.277 33.42V36H135.312L135.269 33.42L137.849 32.99L147.739 3.879ZM150.706 11.146L149.932 7.792L149.115 11.189L145.288 24.39H154.748L150.706 11.146ZM227.872 7.276L224.432 6.717V4.051H247.351L247.91 11.275H244.9L243.481 7.018L234.193 6.631V18.198L240.17 18.069L240.858 14.543H243.61V24.949H240.858L240.17 21.251L234.193 21.122V33.248L244.599 32.732L247.093 27.228L250.318 28.131L249.2 36H224.475V33.42L227.872 32.99V7.276ZM256.092 7.276L252.781 6.717V4.051H266.541V6.717L262.413 7.276V32.947L271.615 32.56L274.324 24.519L277.807 24.992L276.474 36H252.695V33.42L256.092 32.99V7.276Z" fill="white"/>
<path d="M182.489 36.473C177.616 36.473 173.889 35.0253 171.309 32.13C168.729 29.206 167.439 25.2213 167.439 20.176C167.439 16.8507 168.113 13.9553 169.46 11.49C170.836 8.996 172.714 7.07533 175.093 5.728C177.473 4.38066 180.167 3.707 183.177 3.707C184.439 3.707 185.657 3.793 186.832 3.965C188.008 4.10833 189.398 4.309 191.003 4.567C192.207 4.76767 192.867 4.868 192.981 4.868L192.508 13.726H188.552L187.219 7.577C186.904 7.26167 186.359 7.00366 185.585 6.803C184.811 6.60233 183.822 6.502 182.618 6.502C180.182 6.502 178.218 7.63433 176.727 9.899C175.265 12.135 174.534 15.3887 174.534 19.66C174.534 23.788 175.237 27.1563 176.641 29.765C178.046 32.3737 180.096 33.678 182.79 33.678C184.08 33.678 185.069 33.5633 185.757 33.334C186.474 33.076 187.076 32.7177 187.563 32.259L189.455 27.83L193.067 28.174L192.207 34.839C191.605 34.8963 191.003 35.011 190.401 35.183C189.828 35.3263 189.47 35.4123 189.326 35.441C188.18 35.7563 187.105 36 186.101 36.172C185.127 36.3727 183.923 36.473 182.489 36.473ZM210.792 36.473C205.919 36.473 202.192 35.0253 199.612 32.13C197.032 29.206 195.742 25.2213 195.742 20.176C195.742 16.8507 196.416 13.9553 197.763 11.49C199.139 8.996 201.017 7.07533 203.396 5.728C205.775 4.38066 208.47 3.707 211.48 3.707C212.741 3.707 213.96 3.793 215.135 3.965C216.31 4.10833 217.701 4.309 219.306 4.567C220.51 4.76767 221.169 4.868 221.284 4.868L220.811 13.726H216.855L215.522 7.577C215.207 7.26167 214.662 7.00366 213.888 6.803C213.114 6.60233 212.125 6.502 210.921 6.502C208.484 6.502 206.521 7.63433 205.03 9.899C203.568 12.135 202.837 15.3887 202.837 19.66C202.837 23.788 203.539 27.1563 204.944 29.765C206.349 32.3737 208.398 33.678 211.093 33.678C212.383 33.678 213.372 33.5633 214.06 33.334C214.777 33.076 215.379 32.7177 215.866 32.259L217.758 27.83L221.37 28.174L220.51 34.839C219.908 34.8963 219.306 35.011 218.704 35.183C218.131 35.3263 217.772 35.4123 217.629 35.441C216.482 35.7563 215.407 36 214.404 36.172C213.429 36.3727 212.225 36.473 210.792 36.473Z" fill="#77BEFF"/>
<rect x="119" y="19" width="11" height="5" fill="#D9D9D9"/>
</g>
<defs>
<linearGradient id="paint0_linear_22_2" x1="66.1834" y1="12.4982" x2="70.7952" y2="15.5078" gradientUnits="userSpaceOnUse">
<stop stop-color="#3663D8"/>
<stop offset="0.56" stop-color="#77BEFF"/>
<stop offset="0.99" stop-color="#00D1FF"/>
</linearGradient>
<linearGradient id="paint1_linear_22_2" x1="44.3539" y1="7.11405" x2="80.3133" y2="28.1138" gradientUnits="userSpaceOnUse">
<stop stop-color="#3663D8"/>
<stop offset="0.56" stop-color="#77BEFF"/>
<stop offset="0.99" stop-color="#00D1FF"/>
</linearGradient>
<linearGradient id="paint2_linear_22_2" x1="3.6851" y1="7.11034" x2="39.6504" y2="28.1429" gradientUnits="userSpaceOnUse">
<stop stop-color="#3663D8"/>
<stop offset="0.56" stop-color="#77BEFF"/>
<stop offset="0.99" stop-color="#00D1FF"/>
</linearGradient>
<clipPath id="clip0_22_2">
<rect width="278" height="39" fill="white"/>
</clipPath>
</defs>
</svg>
